<svg xmlns="http://www.w3.org/2000/svg" viewBox="280 20 300 350">
  <path d="M457.2,255.36c-1.689,2.719-3.602,4.606-5.536,5.914-1.592-3.376-3.991-6.262-5.82-9.51-5.002-8.184-9.255-16.814-12.877-25.713-12.298-29.495-21.348-80.448-.573-109.077,18.08,46.454,65.317,72.769,132.479,11.51-37.532-6.373-71.059-62.274-126.174-39.396-10.273-44.842-61.548-43.565-82.057-65.916-10.462,62.747,16.83,86.781,49.948,87.058-27.46,19.291-43.319,54.682-47.906,86.983-1.278,9.532-1.749,19.202-1.263,28.817.111,1.552.167,3.133.272,4.703-.422-.342-.648-.567-.648-.567-16.435-17.455-64.415-15.729-68.371,23.764-3.986,39.799,39.115,81.855,62.462,87.324,10.508,2.461,27.746-4.645,43.719-16.414,19.852,31.633,72.054,44.768,93.57,38.523,23.03-6.684,51.858-70.817,36.408-102.538-15.449-31.722-55.437-25.097-67.634-5.465ZM376.89,231.817c-2.427,1.333-4.694,2.039-6.769,2.331-.039-2.92-.571-5.814-.625-8.744-.506-8.87-.126-17.785.997-26.608,4.578-35.533,23.798-77.604,58.616-91.577.095.329.188.658.286.985-28.961,30.346-21.64,86.494-7.499,122.256,3.801,9.508,8.303,18.778,13.601,27.562,1.163,1.838,2.26,3.765,3.462,5.594-1.88-.576-3.881-.934-5.96-1.09-3.118-29.847-37.3-41.041-56.109-30.71Z" fill="#57aa88"/>
  <path d="M524.833,260.825c-15.449-31.722-55.437-25.097-67.634-5.465-7.086,11.406-18.106,8.294-18.106,8.294-1.918-.6-3.966-.968-6.094-1.127-3.118-29.847-37.3-41.041-56.109-30.71-11.769,6.465-19.847-1.652-19.847-1.652-16.435-17.455-64.415-15.729-68.371,23.764-3.986,39.799,39.115,81.855,62.462,87.324,10.508,2.461,27.746-4.645,43.719-16.414,19.852,31.633,72.054,44.768,93.57,38.523,23.03-6.684,51.858-70.817,36.408-102.538Z" fill="#ffa4bc"/>
  <path d="M524.833,260.825c-15.449-31.722-55.437-25.097-67.634-5.465-7.086,11.406-18.106,8.294-18.106,8.294-1.918-.6-3.966-.968-6.094-1.127-3.118-29.847-37.3-41.041-56.109-30.71-11.769,6.465-19.847-1.652-19.847-1.652-16.435-17.455-64.415-15.729-68.371,23.764-3.986,39.799,39.115,81.855,62.462,87.324,10.508,2.461,27.746-4.645,43.719-16.414,19.852,31.633,72.054,44.768,93.57,38.523,23.03-6.684,51.858-70.817,36.408-102.538ZM351.057,245.469c-9.81-7.746-21.566-11.362-31.766-11.609,10.711-7.547,27.068-5.008,37.746,4.661,4.349,3.939-1.375,10.584-5.98,6.948ZM419.53,264.042c-8.35-11.33-20.22-17.82-31.57-20.34-2.85-.63-2.76-4.75.11-5.23,14.8-2.51,32.89,7.06,37.4,24.32-1.96.27-3.95.69-5.94,1.25Z" fill="#e53c68"/>
  <path d="M439.093,263.654c-22.884-7.151-63.851,17.883-47.929,54.241,16.044,36.639,74.231,52.153,97.261,45.469,23.03-6.684,51.858-70.816,36.408-102.538-15.449-31.722-55.437-25.097-67.634-5.465-7.086,11.406-18.106,8.294-18.106,8.294Z" fill="#ffa4bc"/>
  <path d="M524.833,260.825c-15.449-31.722-55.437-25.097-67.634-5.465-7.086,11.406-18.106,8.294-18.106,8.294-22.883-7.151-63.851,17.883-47.929,54.241,16.044,36.639,74.231,52.153,97.261,45.469,23.03-6.684,51.858-70.817,36.408-102.538ZM441.381,279.927c-12.348-1.939-24.366.675-33.376,5.461,5.633-11.83,21.134-17.639,35.181-14.449,5.722,1.299,3.992,9.898-1.805,8.988ZM472.67,260.289c-2.786.843-4.728-2.785-2.466-4.616,14.393-11.646,42.136-9.728,51.652,14.062-15.872-12.775-34.588-13.861-49.186-9.446Z" fill="#f94e83"/>
  <path d="M426.328,95.362c62.636-37.561,98.284,26.285,138.544,33.121-77.052,70.279-127.883,25.302-138.544-33.121Z" fill="#59c194"/></svg>