<?xml version="1.0" encoding="UTF-8" standalone="no"?>
<svg
   id="Layer_2"
   data-name="Layer 2"
   viewBox="0 0 446.89 443.83"
   version="1.1"
   sodipodi:docname="chococat.svg"
   inkscape:version="1.4 (e7c3feb1, 2024-10-09)"
   xmlns:inkscape="http://www.inkscape.org/namespaces/inkscape"
   xmlns:sodipodi="http://sodipodi.sourceforge.net/DTD/sodipodi-0.dtd"
   xmlns="http://www.w3.org/2000/svg"
   xmlns:svg="http://www.w3.org/2000/svg">
  <sodipodi:namedview
     id="namedview12"
     pagecolor="#ffffff"
     bordercolor="#000000"
     borderopacity="0.25"
     inkscape:showpageshadow="2"
     inkscape:pageopacity="0.0"
     inkscape:pagecheckerboard="0"
     inkscape:deskcolor="#d1d1d1"
     inkscape:zoom="0.87718063"
     inkscape:cx="199.50281"
     inkscape:cy="342.00482"
     inkscape:window-width="1504"
     inkscape:window-height="843"
     inkscape:window-x="0"
     inkscape:window-y="38"
     inkscape:window-maximized="0"
     inkscape:current-layer="Layer_2" />
  <defs
     id="defs1">
    <style
       id="style1">
      .cls-1 {
        fill: black;
      }

      .cls-1, .cls-2, .cls-3, .cls-4, .cls-5 {
        stroke-width: 0px;
      }

      .cls-2 {
        fill: var(--vivid-fuschia);
      }

      .cls-3 {
        fill: #fff;
      }

      .cls-4 {
        fill: #FFFACD;
      }

      .cls-5 {
        fill: var(--vivid-fuschia);
      }
    </style>
  </defs>
  <g
     id="katman_1"
     data-name="katman 1">
    <g
       id="g12">
      <path
         class="cls-5"
         d="m189.5,314.95c-1.14-.11-2.25-.23-3.34-.36-3.87-.43-7.68-.92-11.42-1.47,0,1.37,4.62,9.15,10.57,11.63,11.11,4.64,19.57,4.62,28.88,5.15,18.44,1.05,32.66-3.62,40.22-7.17,6.33-2.98,13.21-7.59,15.28-9.01-15.65,2.54-30.94,2.89-47.88,2.89-11.04,0-21.87-.6-32.3-1.65Z"
         id="path1" />
      <path
         class="cls-4"
         d="m110.94,52.62c-9.71-7.6-20.92-11.61-31.49-17.1-8.87-2.96-17.33-7.4-27.67-6.97-4.86,1.9-9.31,6.33-9.51,11.82-1.27,25.58,12.04,45.44,23.03,65.93h1.27c4.43-11.62,12.26-21.99,20.5-32.13,7.39-7.18,15-15.41,23.67-20.06l.21-1.49Z"
         id="path2" />
      <path
         class="cls-4"
         d="m373.16,101.87c9.5-14.37,15.85-29.58,19.86-46.06,1.05-8.89,5.06-20.5-2.54-27.9-3.59-4.01-9.93-3.59-14.57-2.32-17.12,6.12-33.59,13.95-47.34,27.03l.22,1.06c17.96,12.05,32.75,30.02,43.52,48.18h.85Z"
         id="path3" />
      <path
         class="cls-3"
         d="m 301.73,161.25 c -15.84,-0.43 -30.85,9.93 -36.97,24.29 -6.97,14.37 -4.86,34.66 6.34,46.27 10.14,12.68 25.57,16.91 41.41,14.16 13.32,-2.54 26.62,-13.53 31.07,-26.63 5.07,-11.62 3.8,-27.67 -3.18,-37.83 -8.45,-13.72 -22.6,-20.9 -38.67,-20.27 z m -1.9,54.29 c -3.8,5.08 -9.08,7.4 -15.2,7.4 -6.13,-0.2 -11.82,-5.07 -14.16,-10.58 -2.32,-5.9 -1.27,-14.14 3.17,-19.22 4.02,-4.43 9.94,-6.34 16.06,-5.07 4.23,1.06 7.81,4.44 9.71,8.25 2.54,5.7 3.59,13.51 0.42,19.22 z"
         id="path4"
         style="display:inline" />
      <path
         class="cls-3"
         d="m 174.75,233.72 c 8.03,-11.83 10.98,-28.11 6.12,-42.47 -4.44,-10.14 -14.14,-20.93 -24.92,-24.5 -14.16,-4.87 -30.85,-1.68 -42.26,6.97 -12.25,11.63 -20.07,27.26 -14.79,44.16 3.81,15.21 18.8,28.74 34.03,31.69 16.48,2.55 31.06,-4 41.83,-15.83 z m -33.39,-32.96 c 1.7,-5.5 7.61,-8.45 12.69,-9.95 6.76,-0.42 13.1,2.12 16.48,8.05 2.96,5.49 4.23,12.25 1.06,17.95 -2.12,5.93 -8.03,9.09 -13.95,9.51 -5.06,0.2 -9.29,-1.47 -12.46,-4.86 -5.29,-5.5 -6.35,-13.53 -3.82,-20.7 z"
         id="path5"
         style="display:inline" />
      <path
         class="cls-1"
         d="m 289.7,188.07 c -6.12,-1.27 -12.05,0.64 -16.06,5.07 -4.44,5.08 -5.49,13.32 -3.17,19.22 2.33,5.5 8.03,10.37 14.16,10.58 6.13,0 11.41,-2.31 15.2,-7.4 3.17,-5.7 2.12,-13.52 -0.42,-19.22 -1.91,-3.81 -5.49,-7.2 -9.71,-8.25 z"
         id="path6"
         style="display:inline" />
      <path
         class="cls-1"
         d="m 157.64,226.31 c 5.92,-0.42 11.83,-3.58 13.95,-9.51 3.17,-5.7 1.9,-12.46 -1.06,-17.95 -3.38,-5.92 -9.72,-8.47 -16.48,-8.05 -5.07,1.49 -10.98,4.45 -12.69,9.95 -2.53,7.18 -1.47,15.2 3.82,20.7 3.17,3.39 7.4,5.06 12.46,4.86 z"
         id="path7"
         style="display:inline" />
      <path
         class="cls-2"
         d="m 214.9,261.4 c 7.39,1.06 15.42,-0.22 19.85,-6.35 1.26,-2.75 0.84,-5.7 0.43,-8.65 -1.28,-3.8 -4.65,-7.2 -8.45,-8.89 -5.07,-2.1 -12.47,-1.89 -17.13,2.11 -3.58,4.02 -6.75,9.73 -3.8,15.22 1.68,3.57 5.5,5.7 9.1,6.55 z"
         id="path8"
         style="display:inline" />
      <path
         class="cls-1"
         d="m 442.99,215.32 c -1.13,-0.18 -25.44,-4.04 -50.74,-1.09 0.51,-2.02 1.01,-4.08 1.48,-6.19 7.61,-34.09 -6.82,-78.82 -6.82,-78.82 0,0 19.19,-37.74 26.79,-59.39 6.2,-17.65 7.28,-48.71 -6.83,-65.15 -7.05,-8.23 -26.45,-4.94 -50.45,4.71 -23.44,9.43 -48.16,27.5 -48.16,27.5 0,0 -33.29,-17.62 -93.2,-16.99 -49.92,0.53 -84.07,18.4 -84.07,18.4 0,0 -20.49,-13.28 -34.21,-20.09 C 76.63,8.19 58.22,4.46 45.61,5.52 33,6.56 22.99,13.87 21.36,28.21 c -1.34,11.76 -0.87,27.28 7.52,56.18 8.18,28.14 25.38,49.55 25.38,49.55 0,0 -9.36,20.07 -10.56,46.18 -0.6,13.16 0.31,25.96 3.24,38.52 -30.35,-1.34 -42.83,1.52 -43.4,1.65 -2.48,0.59 -4,3.08 -3.42,5.56 0.5,2.13 2.4,3.57 4.5,3.57 0.35,0 0.7,-0.04 1.05,-0.12 0.13,-0.03 12.88,-2.84 43.85,-1.26 1.06,3.31 2.26,6.61 3.64,9.89 4.83,11.56 11.19,20.9 19.21,29.48 -30.38,17.32 -42.52,21.69 -42.65,21.73 -2.41,0.86 -3.67,3.49 -2.83,5.9 0.67,1.91 2.45,3.1 4.36,3.1 0.51,0 1.02,-0.09 1.52,-0.26 0.55,-0.19 13.44,-4.78 46.41,-23.71 4.4,4.08 9.21,8.08 14.47,12.16 7.35,5.69 20.38,11.77 37.15,16.98 -5.65,4.54 -8.15,10.49 -7.63,17.46 0.62,8.16 13.76,20.74 18.06,24.04 8.66,6.63 21.55,12.82 21.55,12.82 0,0 -0.23,13.55 3.05,23.73 3.97,12.29 8.34,18.12 8.34,18.12 l 0.1,13.88 c 0,0 -1.74,2.22 -3.67,5.69 -3.8,6.84 -3.76,13.98 1.07,18.9 4.02,4.11 7.63,4.97 14.46,5.65 6.82,0.69 20.68,-0.23 25.47,-1.36 4.77,-1.15 7.23,-2.09 8.47,-5.55 1.58,-4.4 3.57,-2.22 3.57,-2.22 0,0 -0.23,1.71 1.63,4.53 2.7,4.05 13.75,3.92 24.97,3.63 11.22,-0.29 18.41,-1.72 22.72,-10.35 4.31,-8.63 -4.14,-18.33 -4.71,-19.77 -0.58,-1.43 0.03,-14.1 0.03,-14.1 0,0 8.49,8.87 22.12,12.66 8.82,2.44 19.43,4.77 36.25,-2.3 16.68,-7.02 35.88,-31.39 44,-44 9.01,-13.98 7.95,-18.74 2.89,-22.14 -3.54,-2.36 -9.21,1.44 -14.39,8.34 -5.18,6.91 -12.93,22.71 -18.7,29.62 -5.75,6.91 -14.03,13.69 -24.45,17.26 -8.81,3.02 -19.85,1.15 -28.48,-1.73 -8.63,-2.87 -13.22,-9.77 -13.22,-9.77 l 0.86,-4.02 0.5,-6.58 c 0,0 0.44,0.88 6.78,3.94 6.33,3.06 12.24,1.31 16.61,-1.53 4.37,-2.84 9.66,-9.24 8.15,-17.92 -2.3,-13.13 -9.77,-22.3 -15.75,-29.19 -8.85,-10.23 -15.62,-14.4 -20.41,-17.55 22.31,-3.79 45.49,-12.12 75.39,-30.3 7.95,-4.83 14.94,-10.63 21.06,-17.64 35.08,20.78 54.15,24.66 54.94,24.81 0.3,0.06 0.6,0.09 0.89,0.09 2.17,0 4.09,-1.53 4.53,-3.73 0.49,-2.51 -1.14,-4.93 -3.63,-5.43 -0.19,-0.04 -18.17,-3.79 -50.96,-23.09 6.63,-9.4 12.02,-20.68 16.26,-34.27 25.26,-3.7 51.71,0.5 51.99,0.54 2.46,0.39 4.9,-1.3 5.31,-3.83 0.41,-2.52 -1.3,-4.9 -3.83,-5.31 z M 209.6,239.63 c 4.66,-4 12.06,-4.21 17.13,-2.11 3.8,1.69 7.17,5.08 8.45,8.89 0.41,2.95 0.84,5.91 -0.43,8.65 -4.43,6.13 -12.47,7.41 -19.85,6.35 -3.6,-0.86 -7.41,-2.98 -9.1,-6.55 -2.96,-5.5 0.22,-11.21 3.8,-15.22 z M 87.07,74.18 C 78.83,84.32 71,94.69 66.57,106.31 H 65.3 C 54.31,85.82 41.01,65.96 42.27,40.38 c 0.2,-5.5 4.65,-9.92 9.51,-11.82 10.34,-0.43 18.8,4.01 27.67,6.97 10.57,5.49 21.78,9.5 31.49,17.1 l -0.21,1.49 C 102.07,58.77 94.46,67 87.06,74.18 Z M 98.9,217.86 c -5.28,-16.9 2.54,-32.53 14.79,-44.16 11.42,-8.65 28.1,-11.84 42.26,-6.97 10.79,3.58 20.49,14.37 24.92,24.5 4.86,14.37 1.91,30.64 -6.12,42.47 -10.77,11.84 -25.36,18.38 -41.83,15.83 -15.22,-2.95 -30.22,-16.48 -34.03,-31.69 z m 69.64,96.12 c -0.29,0.24 -0.64,0.36 -0.99,0.36 -0.44,0 -0.88,-0.19 -1.18,-0.55 -6.84,-8.14 -13.99,-12.45 -21.85,-13.17 -4.59,-0.34 -9.48,2.07 -9.53,2.09 -0.73,0.38 -1.68,0.09 -2.07,-0.67 -0.39,-0.75 -0.1,-1.68 0.65,-2.07 0.23,-0.13 5.73,-2.98 11.22,-2.43 8.72,0.8 16.54,5.47 23.93,14.26 0.55,0.65 0.47,1.63 -0.19,2.17 z m 55.18,116.61 c 0,0.85 -0.69,1.54 -1.54,1.54 -0.85,0 -1.54,-0.69 -1.54,-1.54 v -14.3 c 0,-0.85 0.69,-1.54 1.54,-1.54 0.85,0 1.54,0.69 1.54,1.54 z m 48.79,-88.36 c 0.17,0.29 4.28,7.22 5.31,17.3 0.7,6.94 -0.3,13.76 -0.35,14.05 -0.11,0.77 -0.77,1.31 -1.52,1.31 -0.07,0 -0.15,0 -0.23,-0.02 -0.85,-0.12 -1.43,-0.91 -1.3,-1.75 0,-0.07 0.99,-6.74 0.32,-13.28 -0.96,-9.35 -4.84,-15.96 -4.89,-16.03 -0.44,-0.73 -0.2,-1.68 0.54,-2.12 0.72,-0.43 1.67,-0.2 2.11,0.53 z m -18.09,-19.51 c -7.56,3.55 -21.77,8.22 -40.22,7.17 -9.31,-0.53 -17.77,-0.51 -28.88,-5.15 -5.95,-2.48 -10.57,-10.27 -10.57,-11.63 3.74,0.55 7.55,1.04 11.42,1.47 1.09,0.13 2.2,0.25 3.34,0.36 10.43,1.06 21.26,1.65 32.3,1.65 16.94,0 32.23,-0.35 47.88,-2.89 -2.07,1.42 -8.95,6.03 -15.28,9.01 z M 343.6,219.34 c -4.45,13.09 -17.75,24.09 -31.07,26.63 -15.83,2.75 -31.26,-1.48 -41.41,-14.16 -11.21,-11.61 -13.32,-31.9 -6.34,-46.27 6.12,-14.37 21.13,-24.72 36.97,-24.29 16.07,-0.63 30.22,6.55 38.67,20.27 6.98,10.16 8.24,26.21 3.18,37.83 z M 328.8,53.69 328.58,52.63 c 13.75,-13.09 30.22,-20.91 47.34,-27.03 4.64,-1.27 10.98,-1.69 14.57,2.32 7.6,7.4 3.59,19.01 2.54,27.9 -4.01,16.48 -10.36,31.69 -19.86,46.06 h -0.85 C 361.55,83.71 346.76,65.75 328.8,53.7 Z"
         id="path9"
         style="display:inline" />
    </g>
  </g>
</svg>
