<?xml version="1.0" encoding="UTF-8" standalone="no"?>
<!-- Uploaded to: SVG Repo, www.svgrepo.com, Generator: SVG Repo Mixer Tools -->

<svg
   version="1.1"
   id="Uploaded to svgrepo.com"
   width="800px"
   height="800px"
   viewBox="0 0 32 32"
   xml:space="preserve"
   sodipodi:docname="iron.svg"
   inkscape:version="1.4 (e7c3feb1, 2024-10-09)"
   xmlns:inkscape="http://www.inkscape.org/namespaces/inkscape"
   xmlns:sodipodi="http://sodipodi.sourceforge.net/DTD/sodipodi-0.dtd"
   xmlns="http://www.w3.org/2000/svg"
   xmlns:svg="http://www.w3.org/2000/svg"><defs
   id="defs4" /><sodipodi:namedview
   id="namedview4"
   pagecolor="#ffffff"
   bordercolor="#000000"
   borderopacity="0.25"
   inkscape:showpageshadow="2"
   inkscape:pageopacity="0.0"
   inkscape:pagecheckerboard="0"
   inkscape:deskcolor="#d1d1d1"
   inkscape:zoom="0.94833746"
   inkscape:cx="459.75195"
   inkscape:cy="342.17777"
   inkscape:window-width="1488"
   inkscape:window-height="770"
   inkscape:window-x="0"
   inkscape:window-y="38"
   inkscape:window-maximized="0"
   inkscape:current-layer="Uploaded to svgrepo.com" />
<style
   type="text/css"
   id="style1">
	.avocado_een{fill:#231F20;}
	.avocado_vijf{fill:#DBD2C1;}
	.avocado_zes{fill:#FFFAEE;}
	.avocado_zeven{fill:#788287;}
	.st0{fill:#E0A838;}
	.st1{fill:#EAD13F;}
	.st2{fill:#3D3935;}
	.st3{fill:#6F9B45;}
	.st4{fill:#CC4121;}
	.st5{fill:#E598A3;}
	.st6{fill:#D36781;}
	.st7{fill:#8D3E93;}
	.st8{fill:#BF63C1;}
	.st9{fill:#A3AEB5;}
	.st10{fill:#AF9480;}
	.st11{fill:#716558;}
	.st12{fill:#0E608E;}
	.st13{fill:#248EBC;}
	.st14{fill:#D1712A;}
	.st15{fill:#C3CC6A;}
</style>
<path
   class="avocado_zes"
   d="M 30.012,11.295 28.651,7.21 C 28.31,6.188 27.356,5.5 26.279,5.5 h -2.323 c -4.724,0 -9.284,1.714 -12.841,4.824 l -0.346,0.304 C 9.477,11.759 8.338,13.057 7.385,14.486 L 1.375,23.5 h 25.566 v -1.707 l 0.776,-0.776 c 2.561,-2.562 3.44,-6.287 2.295,-9.722 z M 24.837,11.5 14.497,11.494 C 17.289,9.535 20.56,8.5 23.956,8.5 h 0.881 c 0.647,0 1.219,0.412 1.423,1.025 0.154,0.463 0.079,0.956 -0.207,1.352 -0.284,0.395 -0.728,0.623 -1.216,0.623 z"
   id="path1"
   style="display:inline;fill:#e9d5ff;fill-opacity:1"
   inkscape:label="body" /><path
   class="avocado_vijf"
   d="m 28.018,16.5 c -0.173,0 -0.345,0.014 -0.518,0.017 V 17.5 c 0,0.552 -0.449,1 -1,1 -0.551,0 -1,-0.448 -1,-1 v -0.881 c -0.669,0.056 -1.336,0.135 -2,0.237 V 17.5 c 0,0.552 -0.449,1 -1,1 -0.551,0 -1,-0.448 -1,-1 v -0.269 c -0.46,0.102 -0.921,0.202 -1.376,0.326 l -3.248,0.886 C 14.303,19.145 11.649,19.5 8.983,19.5 H 4.042 l -1.333,2 h 24.525 c 1.745,-1.648 2.619,-3.332 3.016,-5 z"
   id="path2"
   style="display:inline;fill:#e9b4ff;fill-opacity:1"
   inkscape:label="base" /><path
   class="avocado_zeven"
   d="m 1.375,23.5 1.333,-2 H 26.94 v 2 z m 22.125,-6 v -2 c 0,-0.552 -0.449,-1 -1,-1 -0.551,0 -1,0.448 -1,1 v 2 c 0,0.552 0.449,1 1,1 0.551,0 1,-0.448 1,-1 z m 4,0 v -2 c 0,-0.552 -0.449,-1 -1,-1 -0.551,0 -1,0.448 -1,1 v 2 c 0,0.552 0.449,1 1,1 0.551,0 1,-0.448 1,-1 z"
   id="path3"
   style="display:inline;fill:#cccccc;fill-opacity:1"
   inkscape:label="plate and buttons" /><path
   class="avocado_een"
   d="M 30.487,11.137 29.125,7.051 C 28.716,5.826 27.57,5 26.279,5 h -2.323 c -4.844,0 -9.524,1.758 -13.17,4.948 l -0.346,0.303 c -1.326,1.16 -2.493,2.491 -3.471,3.958 L 0.96,23.222 C 0.738,23.555 0.976,24 1.375,24 h 26.066 v -2 l 0.63,-0.63 c 2.678,-2.678 3.613,-6.64 2.416,-10.233 z M 7.8,14.764 c 0.928,-1.393 2.038,-2.658 3.297,-3.76 l 0.346,-0.303 C 14.909,7.67 19.352,6 23.956,6 h 2.323 c 0.862,0 1.625,0.55 1.897,1.368 l 1.362,4.086 c 0.501,1.503 0.576,3.062 0.29,4.547 h -1.81 c -0.006,0 -0.012,10e-4 -0.018,10e-4 V 15.5 C 28,14.672 27.328,14 26.5,14 25.672,14 25,14.672 25,15.5 v 0.674 c -0.334,0.033 -0.667,0.072 -1,0.116 V 15.5 C 24,14.672 23.328,14 22.5,14 21.672,14 21,14.672 21,15.5 v 1.335 c -0.337,0.076 -0.674,0.148 -1.008,0.239 l -3.248,0.887 C 14.215,18.65 11.604,19 8.982,19 H 4.976 Z M 27,15.5 v 2 C 27,17.776 26.776,18 26.5,18 26.224,18 26,17.776 26,17.5 v -2 c 0,-0.276 0.224,-0.5 0.5,-0.5 0.276,0 0.5,0.224 0.5,0.5 z m -4,0 v 2 C 23,17.776 22.776,18 22.5,18 22.224,18 22,17.776 22,17.5 v -2 c 0,-0.276 0.224,-0.5 0.5,-0.5 0.276,0 0.5,0.224 0.5,0.5 z M 26.441,23 H 2.31 l 0.667,-1 h 23.465 v 1 z M 27.364,20.663 27.02,21 H 3.643 L 4.31,20 h 4.673 c 2.71,0 5.41,-0.361 8.025,-1.074 l 3.248,-0.887 c 0.261,-0.071 0.526,-0.128 0.79,-0.187 C 21.205,18.51 21.793,19 22.5,19 23.328,19 24,18.328 24,17.5 v -0.198 c 0.333,-0.046 0.666,-0.086 1,-0.121 V 17.5 c 0,0.828 0.672,1.5 1.5,1.5 0.828,0 1.5,-0.672 1.5,-1.5 0,0 0.012,-0.5 0.018,-0.5 h 1.554 c -0.427,1.351 -1.159,2.613 -2.208,3.663 z M 14.501,12 h 10.336 c 1.365,0 2.329,-1.337 1.897,-2.632 C 26.462,8.551 25.698,8 24.837,8 H 23.956 C 20.451,8 17.055,9.089 14.21,11.085 13.81,11.365 14.012,12 14.501,12 Z m 9.455,-3 h 0.881 c 0.431,0 0.812,0.275 0.949,0.684 0.103,0.309 0.053,0.637 -0.137,0.901 C 25.458,10.849 25.162,11 24.837,11 h -8.611 c 2.365,-1.313 5.006,-2 7.73,-2 z"
   id="path4"
   style="display:inline"
   inkscape:label="outline" />
</svg>
