<?xml version="1.0" encoding="UTF-8" standalone="no"?>
<!-- Uploaded to: SVG Repo, www.svgrepo.com, Generator: SVG Repo Mixer Tools -->

<svg
   height="800px"
   width="800px"
   version="1.1"
   id="Layer_1"
   viewBox="0 0 512.003 512.003"
   xml:space="preserve"
   sodipodi:docname="measuring-tape.svg"
   inkscape:version="1.4 (e7c3feb1, 2024-10-09)"
   xmlns:inkscape="http://www.inkscape.org/namespaces/inkscape"
   xmlns:sodipodi="http://sodipodi.sourceforge.net/DTD/sodipodi-0.dtd"
   xmlns="http://www.w3.org/2000/svg"
   xmlns:svg="http://www.w3.org/2000/svg"><defs
   id="defs13" /><sodipodi:namedview
   id="namedview13"
   pagecolor="#ffffff"
   bordercolor="#000000"
   borderopacity="0.25"
   inkscape:showpageshadow="2"
   inkscape:pageopacity="0.0"
   inkscape:pagecheckerboard="0"
   inkscape:deskcolor="#d1d1d1"
   inkscape:zoom="0.56712048"
   inkscape:cx="456.69308"
   inkscape:cy="386.16133"
   inkscape:window-width="1288"
   inkscape:window-height="677"
   inkscape:window-x="0"
   inkscape:window-y="38"
   inkscape:window-maximized="0"
   inkscape:current-layer="Layer_1" />
<polygon
   style="fill:#F47D20;"
   points="316.325,257.445 195.677,257.445 195.677,187.504 286.903,105.092 "
   id="polygon1" />
<path
   style="fill:#ffd200;fill-opacity:1"
   d="M289.41,133.627V482.5c0,10.876,8.816,19.694,19.694,19.694h81.262  c10.876,0,19.694-8.816,19.694-19.694V133.627c0-68.383-41.965-123.819-93.732-123.819H195.679  c32.687,21.1,52.037,22.683,68.542,44.311C281.085,76.219,281.012,107.124,289.41,133.627z"
   id="path1" />
<path
   style="display:inline;fill:#ffa800;fill-opacity:1"
   d="m 316.326,9.808 h -26.154 c 51.767,0 93.732,55.436 93.732,123.819 V 482.5 c 0,10.876 -8.816,19.694 -19.694,19.694 h 26.154 c 10.876,0 19.694,-8.816 19.694,-19.694 V 133.627 C 410.058,65.244 368.092,9.808 316.326,9.808 Z"
   id="path2" />
<path
   style="display:inline;fill:#ffa800;fill-opacity:1"
   d="m 195.677,9.808 c -51.766,0 -93.732,55.436 -93.732,123.819 0,68.383 41.965,123.819 93.732,123.819 51.767,0 93.732,-55.436 93.732,-123.819 0,-68.383 -41.966,-123.819 -93.732,-123.819 z m 0,166.998 c -18.053,0 -32.687,-19.332 -32.687,-43.18 0,-23.848 14.634,-43.18 32.687,-43.18 18.053,0 32.687,19.332 32.687,43.18 0,23.848 -14.635,43.18 -32.687,43.18 z"
   id="path3" />
<path
   d="m 417.343,104.229 c -0.046,-0.517 -0.136,-1.019 -0.258,-1.508 -2.643,-14.522 -7.15,-28.316 -13.361,-40.893 -0.157,-0.386 -0.336,-0.76 -0.539,-1.121 C 399.499,53.402 395.238,46.515 390.423,40.154 370.822,14.26 344.507,0 316.325,0 H 195.677 C 167.496,0 141.18,14.26 121.579,40.154 102.593,65.233 92.138,98.43 92.138,133.627 c 0,35.197 10.456,68.394 29.441,93.473 19.601,25.894 45.917,40.154 74.098,40.154 h 83.924 v 215.247 c 0,16.266 13.235,29.502 29.502,29.502 h 81.262 c 16.266,0 29.502,-13.234 29.502,-29.502 V 133.627 c -0.001,-10.012 -0.876,-19.851 -2.524,-29.398 z M 249.886,247.637 c 7.171,-5.692 13.85,-12.562 19.889,-20.539 3.584,-4.735 6.863,-9.761 9.826,-15.032 v 35.571 z m 140.478,244.748 h -81.262 c -5.45,0 -9.886,-4.436 -9.886,-9.886 V 133.627 c 0,-23.114 -4.621,-45.884 -13.366,-65.849 -2.173,-4.961 -7.957,-7.221 -12.919,-5.049 -4.961,2.173 -7.222,7.957 -5.049,12.919 7.666,17.505 11.718,37.554 11.718,57.981 0,62.866 -37.649,114.012 -83.924,114.012 -46.275,0 -83.924,-51.144 -83.924,-114.012 0,-62.868 37.648,-114.014 83.925,-114.014 h 120.648 c 24.111,0 45.877,13.89 61.199,36.083 h -12.661 c -5.416,0 -9.808,4.39 -9.808,9.808 0,5.418 4.391,9.808 9.808,9.808 h 23.552 c 2.768,6.293 5.103,12.974 6.948,19.97 h -17.558 c -5.416,0 -9.808,4.39 -9.808,9.808 0,5.418 4.391,9.808 9.808,9.808 h 21.308 c 0.744,6.095 1.139,12.349 1.139,18.726 v 1.242 H 325.58 c -5.416,0 -9.808,4.39 -9.808,9.808 0,5.418 4.391,9.808 9.808,9.808 h 74.672 v 19.97 h -19.967 c -5.416,0 -9.808,4.39 -9.808,9.808 0,5.418 4.391,9.808 9.808,9.808 h 19.967 v 19.97 h -19.967 c -5.416,0 -9.808,4.39 -9.808,9.808 0,5.418 4.391,9.808 9.808,9.808 h 19.967 v 19.97 h -19.967 c -5.416,0 -9.808,4.39 -9.808,9.808 0,5.418 4.391,9.808 9.808,9.808 h 19.967 v 19.97 H 325.58 c -5.416,0 -9.808,4.39 -9.808,9.808 0,5.418 4.391,9.808 9.808,9.808 h 74.672 v 19.97 h -19.967 c -5.416,0 -9.808,4.39 -9.808,9.808 0,5.418 4.391,9.808 9.808,9.808 h 19.967 v 19.97 h -19.967 c -5.416,0 -9.808,4.39 -9.808,9.808 0,5.418 4.391,9.808 9.808,9.808 h 19.967 v 19.97 h -19.967 c -5.416,0 -9.808,4.39 -9.808,9.808 0,5.418 4.391,9.808 9.808,9.808 h 19.967 v 19.97 H 325.58 c -5.416,0 -9.808,4.39 -9.808,9.808 0,5.418 4.391,9.808 9.808,9.808 h 74.672 V 482.5 c -0.002,5.45 -4.438,9.885 -9.888,9.885 z"
   id="path4"
   style="display:inline" />
<path
   d="M195.677,80.639c-23.431,0-42.495,23.77-42.495,52.988s19.064,52.988,42.495,52.988s42.495-23.77,42.495-52.988  S219.108,80.639,195.677,80.639z M195.677,166.998c-12.401,0-22.879-15.283-22.879-33.372s10.477-33.372,22.879-33.372  c12.402,0,22.879,15.283,22.879,33.372S208.079,166.998,195.677,166.998z"
   id="path5" />
<circle
   cx="331.293"
   cy="65.503"
   r="9.808"
   id="circle5" />
<circle
   cx="255.995"
   cy="39.944"
   r="9.808"
   id="circle6" />
<circle
   cx="344.239"
   cy="105.087"
   r="9.808"
   id="circle7" />
<circle
   cx="346.723"
   cy="184.268"
   r="9.808"
   id="circle8" />
<circle
   cx="346.723"
   cy="223.852"
   r="9.808"
   id="circle9" />
<circle
   cx="346.723"
   cy="263.436"
   r="9.808"
   id="circle10" />
<circle
   cx="346.723"
   cy="342.604"
   r="9.808"
   id="circle11" />
<circle
   cx="346.723"
   cy="382.188"
   r="9.808"
   id="circle12" />
<circle
   cx="346.723"
   cy="421.771"
   r="9.808"
   id="circle13" />
</svg>
