<?xml version="1.0" encoding="iso-8859-1"?>
<!-- Uploaded to: SVG Repo, www.svgrepo.com, Generator: SVG Repo Mixer Tools -->
<svg version="1.1" id="Layer_1" xmlns="http://www.w3.org/2000/svg" xmlns:xlink="http://www.w3.org/1999/xlink" 
	 viewBox="0 0 512 512" xml:space="preserve">
<rect x="25.979" y="221.506" transform="matrix(-0.7071 0.7071 -0.7071 -0.7071 605.6572 285.8653)" style="fill:#FFAA7C;" width="435.29" height="93.724"/>
<rect x="391.737" y="53.61" transform="matrix(0.7071 -0.7071 0.7071 0.7071 49.4873 320.4182)" style="fill:#F2D59F;" width="39.572" height="93.724"/>
<g>
	<path style="fill:#8ECAC1;" d="M488.102,90.17l-29.455,29.455l-66.274-66.273l29.455-29.455c18.3-18.3,47.972-18.3,66.273,0l0,0
		C506.402,42.199,506.402,71.87,488.102,90.17z"/>
	<polygon style="fill:#8ECAC1;" points="10.199,501.799 57.143,482.469 29.529,454.856 	"/>
</g>
<polygon style="fill:#F2D59F;" points="56.591,389.136 29.529,454.856 57.143,482.469 122.864,455.408 "/>
<g>
	<path style="fill:#4D3D36;" d="M49.378,381.922c-0.961,0.962-1.709,2.095-2.217,3.328h-0.001L0.769,497.916
		c-1.568,3.808-0.693,8.184,2.218,11.096c1.951,1.951,4.56,2.987,7.215,2.987c1.307,0,2.625-0.252,3.881-0.769l112.664-46.39
		l0.001-0.001c1.233-0.508,2.367-1.257,3.328-2.217L495.314,97.384l0,0c22.248-22.249,22.248-58.449-0.001-80.698
		c-22.249-22.248-58.449-22.247-80.697,0L49.378,381.922z M430.665,133.183l-51.848-51.848l13.556-13.557l51.848,51.848
		L430.665,133.183z M122.865,440.984l-51.848-51.848L364.391,95.759l51.848,51.848L122.865,440.984z M59.548,470.449L41.55,452.452
		l18.646-45.286l44.636,44.636L59.548,470.449z M33.135,472.888l5.976,5.976l-10.16,4.184L33.135,472.888z M480.888,82.959
		L480.888,82.959l-22.242,22.242l-51.848-51.848l22.242-22.242c14.295-14.295,37.554-14.294,51.848,0
		C495.183,45.405,495.183,68.664,480.888,82.959z"/>
	<path style="fill:#4D3D36;" d="M274.956,261.013c-3.983-3.983-10.441-3.983-14.425,0l-4.59,4.59
		c-3.983,3.983-3.983,10.441,0,14.426c1.992,1.992,4.602,2.987,7.212,2.987s5.221-0.996,7.212-2.987l4.59-4.59
		C278.938,271.454,278.938,264.996,274.956,261.013z"/>
	<path style="fill:#4D3D36;" d="M230.441,291.102L117.224,404.319c-3.983,3.983-3.983,10.441,0,14.425
		c1.992,1.992,4.602,2.987,7.212,2.987s5.221-0.996,7.212-2.987l113.217-113.217c3.983-3.983,3.983-10.441,0-14.426
		C240.883,287.119,234.424,287.119,230.441,291.102z"/>
</g>
</svg>