<?xml version="1.0" encoding="iso-8859-1"?>
<!-- Uploaded to: SVG Repo, www.svgrepo.com, Generator: SVG Repo Mixer Tools -->
<svg height="800px" width="800px" version="1.1" id="Layer_1" xmlns="http://www.w3.org/2000/svg" xmlns:xlink="http://www.w3.org/1999/xlink" 
	 viewBox="0 0 511.338 511.338" xml:space="preserve">
<g>
	<path style="fill:#FFE100;" d="M404.82,217.6l-214.51,204.8c0.883,10.593-0.883,21.186-4.414,30.897l233.048-220.69L404.82,217.6z"
		/>
	<path style="fill:#FFE100;" d="M485.151,58.703c-18.538-21.186-43.255-31.779-68.855-32.662c0,0-0.883,0.883,0,0.883
		c12.359,3.531,23.835,11.476,35.31,22.069c38.841,37.076,38.841,99.752,0.883,137.71l-38.841,38.841c0,0,0,0,0,0.883l14.124,14.124
		c0,0,0,0,0.883,0l49.434-49.434C513.399,154.924,517.813,96.662,485.151,58.703"/>
	<path style="fill:#FFE100;" d="M376.572,187.586L376.572,187.586l1.766,2.648L376.572,187.586z"/>
	<path style="fill:#FFE100;" d="M173.537,375.614c14.124,30.897,8.828,69.738-16.772,95.338c-32.662,32.662-86.51,32.662-119.172,0
		c-2.648-3.531-5.297-5.297-7.062-7.945c4.414,8.828,9.71,16.772,16.772,23.834c32.662,32.662,86.51,32.662,119.172,0
		C197.371,455.945,199.137,408.276,173.537,375.614"/>
	<path style="fill:#FFE100;" d="M365.978,168.166l30.897-37.076c8.828,0.883,15.89-0.883,22.069-7.062
		c12.359-12.359,12.359-32.662,0-45.021c-12.359-12.359-32.662-12.359-45.021,0c-7.062,7.062-7.945,14.124-7.062,22.069
		l-37.076,37.076l-52.083-52.083l52.083-52.083c37.076-37.076,77.683-37.076,113.876,0l0,0c37.076,37.076,37.076,97.103,0,134.179
		l-52.083,52.083L365.978,168.166z"/>
</g>
<g>
	<path style="fill:#FECC00;" d="M177.068,435.641l233.048-220.69l-37.076-37.076L171.771,368.552
		C182.365,389.738,185.013,413.572,177.068,435.641"/>
	<path style="fill:#FECC00;" d="M180.599,405.628l221.572-211.862l-27.366-26.483L172.654,357.959
		C184.13,379.145,187.661,383.559,180.599,405.628"/>
</g>
<path style="fill:#FFA800;" d="M395.109,199.945l-214.51,204.8c0.883,10.593-0.883,21.186-4.414,30.897l233.048-220.69
	L395.109,199.945z"/>
<path style="fill:#FECC00;" d="M136.461,343.834l112.11-167.724c7.062-10.593,11.476-26.483,2.648-35.31v-6.179
	c-11.476-11.476-11.476-9.71-21.186,3.531L94.089,328.828C116.158,321.766,116.158,332.359,136.461,343.834"/>
<g>
	<path style="fill:#FFFFFF;" d="M254.751,138.152l0.883,0.883C255.634,138.152,255.634,138.152,254.751,138.152L254.751,138.152z"/>
	<path style="fill:#FFFFFF;" d="M101.151,321.766l132.414-187.145c3.531-4.414,5.297-7.945,7.062-9.71
		c-10.593-3.531-23.834-0.883-30.897,9.71L74.668,326.179C83.496,323.531,92.323,321.766,101.151,321.766"/>
</g>
<g>
	<path style="fill:#FFA800;" d="M471.027,35.752c-18.538-17.655-42.372-27.366-67.09-27.366c13.241,3.531,27.366,12.359,39.724,25.6
		c37.076,37.076,37.076,97.103,0,134.179l-40.607,40.607l14.124,14.124l52.083-52.083C507.22,133.738,507.22,72.828,471.027,35.752"
		/>
	<path style="fill:#FFA800;" d="M366.861,169.931L366.861,169.931l1.766,2.648L366.861,169.931z"/>
</g>
<path style="fill:#FFE100;" d="M147.054,452.414c-32.662,32.662-86.51,32.662-119.172,0c-33.545-32.662-21.186-67.09,11.476-99.752
	c19.421-19.421,88.276-38.841,107.697-19.421C179.716,365.903,179.716,419.752,147.054,452.414"/>
<path style="fill:#FFA800;" d="M163.827,357.959c14.124,30.897,8.828,69.738-16.772,95.338c-32.662,32.662-86.51,32.662-119.172,0
	c-2.648-2.648-4.414-5.297-7.062-7.945c4.414,8.828,9.71,16.772,16.772,23.835c32.662,32.662,86.51,32.662,119.172,0
	C187.661,438.29,189.427,390.621,163.827,357.959"/>
<path d="M418.061,231.724c-2.648,0-4.414-0.883-6.179-2.648l-52.083-52.083c-3.531-3.531-3.531-8.828,0-12.359l37.076-37.076
	c1.766-1.766,4.414-2.648,7.062-2.648c7.945,0,11.476-0.883,15.89-5.297s7.062-9.71,7.062-15.89c0-6.179-2.648-11.476-7.062-15.89
	c-8.828-8.828-23.834-8.828-32.662,0c-4.414,4.414-5.297,7.945-5.297,15.89c0,2.648-0.883,5.297-2.648,7.062l-37.076,37.076
	c-3.531,3.531-8.828,3.531-12.359,0l-52.083-52.966c-3.531-3.531-3.531-8.828,0-12.359l52.083-52.083
	c40.607-40.607,106.814-40.607,146.538,0c40.607,40.607,40.607,106.814,0,146.538l-52.083,52.083
	C422.475,230.841,420.709,231.724,418.061,231.724z M378.337,170.814l39.724,39.724l45.903-45.903
	c33.545-33.545,33.545-88.276,0-121.821s-88.276-33.545-121.821,0L296.24,88.717l39.724,39.724l28.248-28.248
	c0-7.945,1.766-16.772,9.71-24.717c15.89-15.89,41.49-15.89,57.379,0c7.945,7.945,11.476,17.655,11.476,28.248
	s-4.414,21.186-11.476,28.248c-7.945,7.945-17.655,9.71-24.717,9.71L378.337,170.814z"/>
<path d="M97.62,502.731c-24.717,0-48.552-9.71-66.207-27.366c-17.655-17.655-27.366-41.49-27.366-66.207
	c0-24.717,9.71-47.669,27.366-65.324c36.193-36.193,95.338-36.193,132.414,0c17.655,17.655,27.366,41.49,27.366,66.207
	c0,24.717-9.71,48.552-27.366,66.207C145.289,493.021,122.337,502.731,97.62,502.731z M97.62,334.124
	c-19.421,0-38.841,7.062-53.848,22.069c-14.124,14.124-22.069,32.662-22.069,52.966c0,20.303,7.945,38.841,22.069,53.848
	s33.545,22.069,53.848,22.069s38.841-7.945,53.848-22.069l0,0c14.124-14.124,22.069-33.545,22.069-53.848
	s-7.945-38.841-22.069-53.848C135.578,341.186,117.04,334.124,97.62,334.124z"/>
<path d="M177.068,444.469c-1.766,0-3.531-0.883-4.414-1.766c-3.531-1.766-5.297-6.179-3.531-10.593
	c6.179-19.421,4.414-41.49-5.297-60.028c-1.766-3.531-0.883-7.945,1.766-10.593l202.152-190.676c3.531-3.531,8.828-3.531,12.359,0
	l37.076,37.076c1.766,1.766,2.648,4.414,2.648,6.179s-0.883,6.179-2.648,7.945L184.13,442.703
	C181.482,443.586,179.716,444.469,177.068,444.469z M182.365,371.2c6.179,12.359,8.828,26.483,7.945,40.607l207.448-195.972
	l-24.717-24.717L182.365,371.2z"/>
<path d="M137.344,343.834c-1.766,0-2.648,0-4.414-0.883c-18.538-9.71-39.724-12.359-60.028-5.297c-3.531,0.883-7.945,0-9.71-3.531
	c-2.648-2.648-2.648-7.062,0-10.593l135.945-191.559c6.179-8.828,15.007-14.124,25.6-15.007
	c10.593-0.883,20.303,2.648,28.248,10.593c11.476,11.476,13.241,30.897,4.414,44.138l-112.11,168.607
	C143.523,342.952,140.875,343.834,137.344,343.834z M97.62,316.469c13.241,0,25.6,2.648,37.076,7.945l107.697-161.545
	c4.414-7.062,3.531-15.89-1.766-22.069c-3.531-3.531-8.828-5.297-14.124-5.297s-9.71,3.531-12.359,7.062L90.558,316.469
	C93.206,316.469,94.971,316.469,97.62,316.469z"/>
<path d="M97.62,449.766c-10.593,0-21.186-3.531-28.248-11.476c-15.89-15.89-15.89-41.49,0-57.379
	c7.945-7.945,17.655-11.476,28.248-11.476s21.186,4.414,28.248,11.476c15.89,15.89,15.89,41.49,0,57.379l0,0
	C117.923,446.234,107.33,449.766,97.62,449.766z M97.62,386.207c-6.179,0-11.476,2.648-15.89,7.062
	c-8.828,8.828-8.828,23.834,0,32.662c8.828,8.828,23.834,8.828,32.662,0c8.828-8.828,8.828-23.835,0-32.662
	C109.096,388.855,103.799,386.207,97.62,386.207z M119.689,432.11L119.689,432.11L119.689,432.11z"/>
</svg>