<?xml version="1.0" encoding="iso-8859-1"?>
<!-- Uploaded to: SVG Repo, www.svgrepo.com, Generator: SVG Repo Mixer Tools -->
<svg height="800px" width="800px" version="1.1" id="Layer_1" xmlns="http://www.w3.org/2000/svg" xmlns:xlink="http://www.w3.org/1999/xlink" 
	 viewBox="0 0 512 512" xml:space="preserve">
<path style="fill:#E44F50;" d="M281.269,8.651L281.269,8.651c-41.047,0-74.322,33.275-74.322,74.322v92.388l60.215-24.001v-35.882
	c-8.355-4.865-13.975-13.912-13.975-24.278c0-15.51,12.573-28.083,28.083-28.083c15.51,0,28.083,12.573,28.083,28.083
	c0,10.365-5.62,19.412-13.975,24.278v35.882h60.215V82.973C355.592,41.926,322.317,8.651,281.269,8.651z"/>
<g>
	<path style="fill:#DD263D;" d="M266.693,115.479c0.08-0.046,0.155-0.099,0.234-0.146c-8.223-4.898-13.74-13.865-13.74-24.131
		c0-10.268,5.515-19.246,13.74-24.144c-5.127-3.052-11.305-4.524-17.867-3.723c-12.906,1.576-23.178,12.143-24.424,25.085
		c-1.107,11.512,4.745,21.764,13.841,27.06v1.939c0,20.495-12.491,38.921-31.531,46.51l0,0v11.433l60.215-24.001h-0.468
		L266.693,115.479L266.693,115.479z"/>
	<path style="fill:#DD263D;" d="M281.269,8.651c-4.908,0-9.7,0.488-14.341,1.396c34.183,6.685,59.981,36.787,59.981,72.926v68.387
		h28.684V82.973C355.592,41.926,322.317,8.651,281.269,8.651z"/>
</g>
<circle cx="290.622" cy="469.036" r="8.651"/>
<path d="M364.242,151.309c0-0.001,0-0.002,0-0.002V82.973C364.242,37.222,327.021,0,281.27,0c-45.752,0-82.975,37.222-82.975,82.973
	v92.388c0,2.869,1.421,5.552,3.797,7.161c1.453,0.985,3.148,1.49,4.855,1.49c1.082,0,2.169-0.203,3.202-0.615l60.215-24.002
	c3.29-1.312,5.448-4.494,5.448-8.036v-35.882c0-3.079-1.637-5.927-4.298-7.476c-5.969-3.477-9.678-9.914-9.678-16.802
	c0-10.715,8.717-19.432,19.432-19.432c10.715,0,19.432,8.717,19.432,19.432c0,6.888-3.708,13.326-9.678,16.802
	c-2.661,1.55-4.298,4.397-4.298,7.476v35.882c0,4.778,3.872,8.651,8.651,8.651h50.688L319.31,437.128
	c-7.611-6.845-17.669-11.019-28.686-11.019c-13.935,0-26.337,6.676-34.187,16.993l-91.859-263.284
	c-1.573-4.511-6.508-6.892-11.018-5.319c-4.511,1.575-6.893,6.507-5.318,11.018l99.477,285.117
	c0.835,22.95,19.756,41.366,42.907,41.366c23.493,0,42.631-18.965,42.932-42.388l30.64-317.348c0.001-0.014,0.002-0.028,0.005-0.042
	l0.002-0.03c0.01-0.103,0.008-0.204,0.014-0.307c0.01-0.174,0.027-0.347,0.027-0.524v-0.053H364.242z M281.27,54.467
	c-20.255,0-36.734,16.479-36.734,36.734c0,11.277,5.25,21.912,13.975,28.822v25.473l-42.912,17.105V82.973
	c0-36.212,29.46-65.671,65.672-65.671s65.671,29.46,65.671,65.671v59.736H304.03v-22.686c8.725-6.911,13.975-17.546,13.975-28.822
	C318.004,70.946,301.524,54.467,281.27,54.467z M290.622,494.698c-14.141,0-25.643-11.504-25.643-25.643
	c0-14.14,11.504-25.643,25.643-25.643s25.643,11.504,25.643,25.643C316.266,483.194,304.763,494.698,290.622,494.698z"/>
</svg>