<?xml version="1.0" encoding="UTF-8" standalone="no"?>
<!-- Uploaded to: SVG Repo, www.svgrepo.com, Generator: SVG Repo Mixer Tools -->

<svg
   height="800px"
   width="800px"
   version="1.1"
   id="Layer_1"
   viewBox="0 0 511.998 511.998"
   xml:space="preserve"
   sodipodi:docname="shears.svg"
   inkscape:version="1.4 (e7c3feb1, 2024-10-09)"
   xmlns:inkscape="http://www.inkscape.org/namespaces/inkscape"
   xmlns:sodipodi="http://sodipodi.sourceforge.net/DTD/sodipodi-0.dtd"
   xmlns="http://www.w3.org/2000/svg"
   xmlns:svg="http://www.w3.org/2000/svg"><defs
   id="defs9" /><sodipodi:namedview
   id="namedview9"
   pagecolor="#ffffff"
   bordercolor="#000000"
   borderopacity="0.25"
   inkscape:showpageshadow="2"
   inkscape:pageopacity="0.0"
   inkscape:pagecheckerboard="0"
   inkscape:deskcolor="#d1d1d1"
   inkscape:zoom="0.49102564"
   inkscape:cx="185.32637"
   inkscape:cy="268.82507"
   inkscape:window-width="1464"
   inkscape:window-height="889"
   inkscape:window-x="0"
   inkscape:window-y="38"
   inkscape:window-maximized="0"
   inkscape:current-layer="Layer_1" />
<polygon
   style="fill:#b3b3b3"
   points="312.822,302.213 256.002,325.751 289.284,245.393 "
   id="polygon1"
   transform="rotate(90,255.999,255.99874)" />
<g
   id="g2"
   transform="rotate(90,255.999,255.99874)">
	<path
   style="fill:#cccccc"
   d="m 256.002,165.035 -33.283,80.358 -14.33,-34.596 -24.648,-59.495 C 164.622,105.146 167.416,52.816 191.348,8.965 l 50.324,121.475 z"
   id="path1" />
	<path
   style="fill:#cccccc"
   d="m 320.656,8.952 c 23.92,43.863 26.714,96.193 7.595,142.349 l -38.967,94.091 -33.283,80.358 -56.82,-23.538 23.538,-56.82 33.283,-80.358 z"
   id="path2" />
</g>
<polygon
   style="fill:#b3b3b3"
   points="222.719,245.393 208.389,210.797 227.341,165.035 241.671,130.438 256.002,165.035 "
   id="polygon2"
   transform="rotate(90,255.999,255.99874)" />
<g
   id="g4"
   style="display:inline;fill:#ec4899;fill-opacity:1"
   transform="rotate(90,255.999,255.99874)">
	<path
   style="fill:#ec4899;fill-opacity:1"
   d="m 465.25,385.091 c 18.021,43.529 -2.639,93.423 -46.168,111.455 -43.529,18.032 -93.435,-2.639 -111.455,-46.168 l -51.625,-124.627 56.82,-23.538 16.492,-6.831 19.071,46.037 c 1.755,-0.884 3.559,-1.732 5.41,-2.496 43.517,-18.033 93.423,2.639 111.455,46.168 z m -29.699,52.987 c 11.237,-27.12 -1.648,-58.217 -28.768,-69.455 -27.132,-11.237 -58.229,1.648 -69.455,28.768 -11.237,27.12 1.636,58.217 28.768,69.455 27.12,11.238 58.217,-1.648 69.455,-28.768 z"
   id="path3" />
	<path
   style="fill:#ec4899;fill-opacity:1"
   d="M 256.002,325.751 204.377,450.378 C 186.344,493.907 136.439,514.579 92.922,496.546 49.393,478.513 28.722,428.62 46.754,385.091 64.775,341.562 114.68,320.89 158.209,338.923 c 1.851,0.764 3.642,1.612 5.41,2.496 l 19.071,-46.037 16.492,6.831 z m -81.326,112.327 c 11.237,-27.12 -1.648,-58.217 -28.768,-69.455 -27.132,-11.237 -58.229,1.648 -69.455,28.768 -11.237,27.12 1.636,58.217 28.768,69.455 27.121,11.238 58.218,-1.648 69.455,-28.768 z"
   id="path4" />
</g>
<g
   id="g6"
   style="display:inline"
   transform="rotate(90,255.999,255.99874)">
	<path
   style="fill:#ffffff"
   d="m 203.811,389.565 c -1.143,0 -2.304,-0.22 -3.424,-0.684 -4.57,-1.893 -6.741,-7.133 -4.847,-11.702 l 17.037,-41.126 c 1.893,-4.57 7.134,-6.739 11.702,-4.847 4.57,1.893 6.741,7.133 4.847,11.702 l -17.037,41.126 c -1.429,3.449 -4.763,5.531 -8.278,5.531 z"
   id="path5" />
	<path
   style="fill:#ffffff"
   d="m 326.517,368.38 c -3.515,0 -6.849,-2.082 -8.278,-5.53 l -11.998,-28.959 c -1.894,-4.57 0.276,-9.809 4.846,-11.702 4.574,-1.894 9.81,0.276 11.703,4.846 l 11.998,28.959 c 1.894,4.57 -0.276,9.809 -4.846,11.702 -1.121,0.465 -2.282,0.684 -3.425,0.684 z"
   id="path6" />
</g>
<g
   id="g9"
   style="display:inline"
   transform="rotate(90,255.999,255.99874)"
   inkscape:label="outline">
	<path
   style="fill:#000000;fill-opacity:1"
   d="m 149.332,360.347 c -15.329,-6.348 -32.211,-6.35 -47.542,0 -15.329,6.35 -27.267,18.288 -33.616,33.617 -13.108,31.644 1.973,68.052 33.616,81.159 7.749,3.21 15.783,4.729 23.691,4.729 24.387,0 47.572,-14.451 57.469,-38.346 6.35,-15.329 6.35,-32.214 0,-47.543 -6.35,-15.328 -18.289,-27.267 -33.618,-33.616 z m 17.069,74.304 c -7.043,17.005 -23.541,27.29 -40.897,27.288 -5.626,0 -11.346,-1.082 -16.859,-3.365 -22.518,-9.328 -33.25,-35.236 -23.922,-57.754 4.519,-10.908 13.014,-19.405 23.924,-23.922 5.454,-2.259 11.184,-3.389 16.915,-3.389 5.731,0 11.463,1.13 16.916,3.389 10.909,4.519 19.405,13.014 23.922,23.922 4.518,10.908 4.518,22.922 0.001,33.831 z"
   id="path7" />
	<path
   style="fill:#000000;fill-opacity:1"
   d="m 410.206,360.347 c -15.328,-6.348 -32.21,-6.35 -47.543,0 -15.329,6.35 -27.267,18.288 -33.616,33.617 -13.108,31.644 1.973,68.052 33.616,81.159 7.749,3.21 15.783,4.729 23.691,4.729 24.387,0 47.572,-14.451 57.469,-38.346 6.35,-15.329 6.35,-32.214 0,-47.543 -6.349,-15.328 -18.288,-27.267 -33.617,-33.616 z m 17.069,74.304 c -4.519,10.909 -13.014,19.405 -23.923,23.922 -10.904,4.52 -22.92,4.52 -33.832,0 -22.518,-9.328 -33.25,-35.236 -23.922,-57.754 4.519,-10.908 13.014,-19.405 23.923,-23.922 5.454,-2.259 11.184,-3.389 16.915,-3.389 5.731,0 11.463,1.13 16.916,3.389 10.909,4.519 19.405,13.014 23.923,23.922 4.517,10.909 4.517,22.923 0,33.832 z"
   id="path8" />
	<path
   style="fill:#000000;fill-opacity:1"
   d="M 473.523,381.662 C 454.017,334.571 400.506,311.65 353.158,329.541 l -15.571,-37.59 c -1.893,-4.57 -7.131,-6.74 -11.702,-4.847 l -8.221,3.406 -18.687,-45.115 37.553,-90.662 c 20.256,-48.904 17.334,-103.6 -8.017,-150.065 -1.654,-3.029 -4.887,-4.851 -8.34,-4.654 -3.444,0.184 -6.477,2.33 -7.796,5.516 L 256,141.638 199.621,5.532 c -1.318,-3.186 -4.353,-5.332 -7.796,-5.516 -3.446,-0.198 -6.689,1.625 -8.34,4.653 -25.352,46.459 -28.274,101.155 -8.017,150.061 l 37.554,90.663 -18.688,45.117 -8.222,-3.406 c -2.195,-0.909 -4.66,-0.909 -6.855,0 -2.195,0.909 -3.938,2.652 -4.847,4.847 l -15.57,37.59 c -47.354,-17.892 -100.86,5.03 -120.365,52.121 -9.636,23.262 -9.636,48.884 -0.001,72.146 9.636,23.262 27.753,41.379 51.015,51.014 11.759,4.871 23.95,7.176 35.95,7.176 37.006,0 72.19,-21.929 87.209,-58.191 l 43.351,-104.658 43.351,104.658 c 15.021,36.264 50.2,58.191 87.209,58.191 11.997,0 24.195,-2.307 35.95,-7.176 23.262,-9.635 41.378,-27.752 51.015,-51.014 9.635,-23.262 9.635,-48.884 -10e-4,-72.146 z m -172.409,-84.298 -28.567,11.833 16.734,-40.4 z M 192.016,147.874 C 176.386,110.138 176.138,68.562 190.844,31.149 l 55.46,133.892 -23.588,56.948 z M 321.153,31.149 c 14.704,37.418 14.456,78.995 -1.172,116.729 l -68.829,166.166 -23.274,-9.64 -16.996,-7.04 z M 196.099,446.953 c -7.804,18.841 -22.479,33.515 -41.321,41.32 -18.84,7.804 -39.593,7.805 -58.436,0 -18.841,-7.804 -33.515,-22.479 -41.321,-41.32 -7.805,-18.841 -7.804,-39.594 0,-58.436 12.167,-29.373 40.661,-47.132 70.637,-47.132 9.718,0 19.596,1.868 29.117,5.812 1.457,0.603 2.997,1.314 4.851,2.236 2.222,1.105 4.804,1.238 7.129,0.369 2.325,-0.871 4.184,-2.667 5.134,-4.961 l 15.641,-37.758 32.736,13.559 24.03,9.954 z m 260.874,0 c -7.804,18.841 -22.479,33.515 -41.321,41.32 -18.841,7.805 -39.594,7.805 -58.436,0 -18.841,-7.804 -33.515,-22.479 -41.321,-41.32 l -48.197,-116.359 48.543,-20.107 c 0.001,0 0.002,-0.001 0.004,-0.001 l 8.216,-3.404 15.642,37.758 c 0.949,2.294 2.81,4.09 5.135,4.961 2.324,0.871 4.907,0.737 7.131,-0.37 1.844,-0.918 3.384,-1.628 4.847,-2.233 38.895,-16.11 83.645,2.425 99.756,41.32 7.806,18.841 7.806,39.594 0.001,58.435 z"
   id="path9" />
	<circle
   style="fill:#000000;fill-opacity:1"
   cx="256.729"
   cy="247.15199"
   r="8.9569998"
   id="circle9" />
</g>
</svg>
